<svg xmlns="http://www.w3.org/2000/svg" viewBox="0 0 600 500" fill="none" role="img" aria-label="Security team collaboration illustration">
  <defs>
    <linearGradient id="ben-bg" x1="0%" y1="0%" x2="100%" y2="100%">
      <stop offset="0%" stop-color="#2563eb" stop-opacity="0.08"/>
      <stop offset="100%" stop-color="#06b6d4" stop-opacity="0.06"/>
    </linearGradient>
    <linearGradient id="ben-accent" x1="0%" y1="0%" x2="100%" y2="0%">
      <stop offset="0%" stop-color="#2563eb"/>
      <stop offset="100%" stop-color="#06b6d4"/>
    </linearGradient>
  </defs>
  <rect width="600" height="500" fill="url(#ben-bg)"/>
  <rect x="40" y="60" width="520" height="380" rx="20" fill="#ffffff" fill-opacity="0.9" stroke="#e2e8f0"/>
  <circle cx="180" cy="200" r="50" fill="#eff6ff" stroke="#bfdbfe" stroke-width="2"/>
  <circle cx="180" cy="185" r="18" fill="#2563eb" fill-opacity="0.3"/>
  <path d="M140 240 Q180 210 220 240 L220 280 L140 280 Z" fill="#2563eb" fill-opacity="0.2"/>
  <circle cx="300" cy="190" r="55" fill="#ecfeff" stroke="#a5f3fc" stroke-width="2"/>
  <circle cx="300" cy="172" r="20" fill="#06b6d4" fill-opacity="0.3"/>
  <path d="M255 235 Q300 200 345 235 L345 290 L255 290 Z" fill="#06b6d4" fill-opacity="0.2"/>
  <circle cx="420" cy="200" r="50" fill="#f0fdf4" stroke="#bbf7d0" stroke-width="2"/>
  <circle cx="420" cy="185" r="18" fill="#22c55e" fill-opacity="0.3"/>
  <path d="M380 240 Q420 210 460 240 L460 280 L380 280 Z" fill="#22c55e" fill-opacity="0.2"/>
  <rect x="80" y="320" width="440" height="100" rx="12" fill="#f8fafc" stroke="#e2e8f0"/>
  <rect x="100" y="345" width="160" height="10" rx="5" fill="#0f172a" fill-opacity="0.7"/>
  <rect x="100" y="365" width="280" height="8" rx="4" fill="#64748b" fill-opacity="0.3"/>
  <rect x="100" y="385" width="200" height="8" rx="4" fill="#64748b" fill-opacity="0.2"/>
  <rect x="380" y="345" width="120" height="36" rx="8" fill="url(#ben-accent)"/>
  <path d="M250 160 L300 160 L275 130 Z" fill="url(#ben-accent)" fill-opacity="0.3"/>
  <circle cx="275" cy="155" r="4" fill="url(#ben-accent)"/>
</svg>
