<svg xmlns="http://www.w3.org/2000/svg" viewBox="0 0 560 560" fill="none" role="img" aria-label="Security dashboard illustration">
  <defs>
    <linearGradient id="hero-bg" x1="0%" y1="0%" x2="100%" y2="100%">
      <stop offset="0%" stop-color="#2563eb" stop-opacity="0.15"/>
      <stop offset="100%" stop-color="#06b6d4" stop-opacity="0.1"/>
    </linearGradient>
    <linearGradient id="hero-accent" x1="0%" y1="0%" x2="100%" y2="0%">
      <stop offset="0%" stop-color="#2563eb"/>
      <stop offset="100%" stop-color="#06b6d4"/>
    </linearGradient>
  </defs>
  <rect width="560" height="560" rx="24" fill="url(#hero-bg)"/>
  <rect x="40" y="40" width="480" height="320" rx="16" fill="#ffffff" fill-opacity="0.95" stroke="#e2e8f0" stroke-width="1"/>
  <rect x="40" y="40" width="480" height="48" rx="16" fill="#f8fafc"/>
  <rect x="40" y="72" width="480" height="16" fill="#f8fafc"/>
  <circle cx="68" cy="64" r="6" fill="#ef4444"/>
  <circle cx="88" cy="64" r="6" fill="#f59e0b"/>
  <circle cx="108" cy="64" r="6" fill="#22c55e"/>
  <rect x="60" y="108" width="140" height="80" rx="8" fill="#eff6ff" stroke="#bfdbfe" stroke-width="1"/>
  <rect x="70" y="130" width="60" height="8" rx="4" fill="#2563eb" fill-opacity="0.6"/>
  <rect x="70" y="148" width="100" height="6" rx="3" fill="#94a3b8" fill-opacity="0.4"/>
  <rect x="70" y="162" width="80" height="6" rx="3" fill="#94a3b8" fill-opacity="0.3"/>
  <rect x="220" y="108" width="140" height="80" rx="8" fill="#ecfeff" stroke="#a5f3fc" stroke-width="1"/>
  <rect x="230" y="130" width="60" height="8" rx="4" fill="#06b6d4" fill-opacity="0.6"/>
  <rect x="230" y="148" width="100" height="6" rx="3" fill="#94a3b8" fill-opacity="0.4"/>
  <rect x="380" y="108" width="120" height="80" rx="8" fill="#f0fdf4" stroke="#bbf7d0" stroke-width="1"/>
  <rect x="390" y="130" width="50" height="8" rx="4" fill="#22c55e" fill-opacity="0.6"/>
  <rect x="60" y="208" width="440" height="132" rx="8" fill="#f8fafc" stroke="#e2e8f0" stroke-width="1"/>
  <path d="M80 300 L120 260 L160 280 L200 220 L240 250 L280 200 L320 240 L360 210 L400 260 L440 230 L480 270" stroke="url(#hero-accent)" stroke-width="3" fill="none" stroke-linecap="round" stroke-linejoin="round"/>
  <path d="M80 300 L120 260 L160 280 L200 220 L240 250 L280 200 L320 240 L360 210 L400 260 L440 230 L480 270 L480 320 L80 320 Z" fill="url(#hero-accent)" fill-opacity="0.1"/>
  <rect x="40" y="380" width="480" height="140" rx="16" fill="#ffffff" fill-opacity="0.95" stroke="#e2e8f0" stroke-width="1"/>
  <rect x="60" y="400" width="200" height="12" rx="6" fill="#0f172a" fill-opacity="0.8"/>
  <rect x="60" y="422" width="280" height="8" rx="4" fill="#64748b" fill-opacity="0.4"/>
  <rect x="60" y="442" width="120" height="32" rx="8" fill="url(#hero-accent)"/>
  <rect x="192" y="442" width="120" height="32" rx="8" fill="#f1f5f9" stroke="#e2e8f0" stroke-width="1"/>
  <circle cx="420" cy="460" r="40" fill="url(#hero-accent)" fill-opacity="0.15" stroke="url(#hero-accent)" stroke-width="2"/>
  <path d="M420 440 L420 470 M405 455 L435 455" stroke="url(#hero-accent)" stroke-width="3" stroke-linecap="round"/>
</svg>
