<svg xmlns="http://www.w3.org/2000/svg" viewBox="0 0 400 250" fill="none" role="img" aria-label="Cloud security illustration">
  <defs>
    <linearGradient id="c1" x1="0%" y1="0%" x2="100%" y2="100%">
      <stop offset="0%" stop-color="#6366f1" stop-opacity="0.2"/>
      <stop offset="100%" stop-color="#8b5cf6" stop-opacity="0.1"/>
    </linearGradient>
  </defs>
  <rect width="400" height="250" fill="url(#c1)"/>
  <path d="M120 160 C100 160 90 145 95 130 C90 115 105 100 125 105 C130 85 155 75 175 85 C195 70 220 80 225 100 C250 95 270 115 265 135 C275 150 260 165 240 160 Z" fill="#ffffff" fill-opacity="0.8" stroke="#6366f1" stroke-width="2"/>
  <path d="M200 160 C180 160 170 145 175 130 C170 115 185 100 205 105 C210 85 235 75 255 85 C275 70 300 80 305 100 C330 95 350 115 345 135 C355 150 340 165 320 160 Z" fill="#ffffff" fill-opacity="0.6" stroke="#8b5cf6" stroke-width="2"/>
  <rect x="170" y="175" width="60" height="40" rx="4" fill="#6366f1" fill-opacity="0.2" stroke="#6366f1"/>
  <line x1="185" y1="190" x2="215" y2="190" stroke="#6366f1" stroke-width="2"/>
  <line x1="185" y1="200" x2="205" y2="200" stroke="#6366f1" stroke-width="2"/>
</svg>
